<?xml version="1.0" standalone="no"?>
<!DOCTYPE svg PUBLIC "-//W3C//DTD SVG 20010904//EN"
 "http://www.w3.org/TR/2001/REC-SVG-20010904/DTD/svg10.dtd">
<svg version="1.0" xmlns="http://www.w3.org/2000/svg"
 width="900.000000pt" height="714.000000pt" viewBox="0 0 900.000000 714.000000"
 preserveAspectRatio="xMidYMid meet">
<metadata>
Created by potrace 1.10, written by Peter Selinger 2001-2011
</metadata>
<g transform="translate(0.000000,714.000000) scale(0.100000,-0.100000)"
fill="#ffffff" stroke="none">
<path d="M4060 6555 c0 -28 69 -105 94 -105 18 0 1 34 -34 70 -35 36 -60 50
-60 35z"/>
<path d="M4966 6441 c-4 -6 -19 -11 -34 -11 -35 0 -70 -25 -83 -57 -20 -54 20
-88 43 -37 12 26 55 54 82 54 27 0 66 -23 66 -39 0 -9 14 -43 30 -76 22 -42
29 -67 25 -86 -5 -22 -2 -30 15 -39 25 -13 50 -7 50 13 0 8 -10 27 -22 43 -19
24 -22 38 -19 94 3 73 -2 81 -61 118 -43 27 -84 37 -92 23z"/>
<path d="M3804 6428 c-8 -12 62 -78 84 -78 23 0 12 28 -23 59 -39 34 -50 37
-61 19z"/>
<path d="M4315 6416 c-16 -12 -17 -18 -8 -39 16 -34 48 -43 78 -23 43 28 27
76 -25 76 -14 0 -35 -6 -45 -14z"/>
<path d="M3995 6293 c-16 -3 -34 -8 -40 -12 -5 -4 -38 -18 -72 -31 -35 -12
-63 -26 -63 -31 0 -5 -6 -9 -14 -9 -15 0 -121 -75 -175 -124 -18 -17 -58 -62
-88 -100 l-56 -68 -51 7 c-28 3 -53 8 -55 11 -3 3 3 18 13 35 14 24 15 33 6
44 -7 8 -19 15 -26 15 -19 0 -59 -47 -59 -68 0 -21 -54 -28 -84 -13 -21 12
-275 34 -381 33 -119 0 -196 -35 -233 -104 -17 -33 -17 -35 2 -78 22 -50 101
-140 122 -140 8 0 24 7 35 15 19 13 24 11 55 -15 35 -30 82 -39 95 -18 4 6 -3
19 -17 29 -71 52 -76 73 -25 94 47 20 52 31 19 49 -56 30 -58 33 -43 51 10 12
10 19 2 27 -9 9 -19 6 -42 -10 -16 -12 -41 -22 -55 -22 -14 0 -25 -4 -25 -9 0
-5 6 -9 13 -8 33 1 47 -4 47 -18 0 -8 -4 -15 -10 -15 -5 0 -15 -10 -21 -22 -9
-18 -8 -24 6 -34 11 -9 15 -19 10 -34 -7 -21 -7 -21 -27 -3 -43 38 -98 116
-98 138 0 15 12 32 33 47 30 22 39 23 185 21 83 -1 169 -7 190 -12 20 -6 71
-11 112 -11 95 0 108 -7 85 -46 -53 -94 -73 -129 -121 -221 -29 -57 -62 -116
-73 -132 -12 -16 -21 -39 -21 -51 0 -12 -6 -36 -14 -53 -41 -92 -56 -132 -56
-151 0 -12 -5 -27 -12 -34 -17 -17 6 -62 32 -62 17 0 20 6 20 49 0 27 9 70 21
97 11 27 25 60 31 74 6 14 14 32 19 40 15 27 91 184 105 218 10 23 21 32 37
32 51 0 60 -40 22 -100 -46 -73 -165 -312 -165 -331 0 -38 37 -14 96 62 40 53
45 63 31 71 -21 11 -17 20 56 140 71 118 86 132 128 111 25 -13 41 -13 97 -3
37 6 87 14 111 16 23 2 53 10 65 16 11 6 50 15 86 19 73 8 149 26 165 38 5 5
26 12 45 16 19 4 41 11 50 16 8 5 53 26 100 47 96 44 168 103 206 168 23 39
26 53 22 112 -6 107 -64 177 -181 218 -46 16 -128 24 -172 17z m220 -94 c66
-44 87 -75 87 -129 0 -33 -7 -59 -25 -87 -36 -56 -138 -135 -227 -176 -81 -36
-127 -55 -165 -67 -22 -7 -63 -21 -90 -31 -28 -10 -65 -19 -82 -19 -18 0 -34
-4 -37 -9 -3 -5 -50 -12 -103 -15 -54 -4 -119 -9 -145 -12 -46 -6 -48 -5 -48
19 0 14 4 28 9 31 5 4 30 38 55 76 26 39 50 70 54 71 4 1 24 2 46 3 59 4 99
69 64 105 -11 10 -4 20 32 52 25 23 63 57 85 78 40 38 69 57 160 107 89 48
258 50 330 3z m-781 -340 c12 -11 -60 -98 -93 -111 -52 -21 -76 -33 -83 -43
-4 -5 -10 -7 -13 -3 -6 6 43 103 77 151 19 26 24 28 62 22 22 -4 45 -11 50
-16z m-94 -148 c0 -29 -34 -65 -53 -58 -23 9 -21 19 8 51 28 31 45 33 45 7z"/>
<path d="M3802 5877 c-5 -6 -12 -22 -16 -33 -10 -33 23 -41 46 -12 22 29 22
35 -1 47 -13 8 -22 7 -29 -2z"/>
<path d="M4581 6291 c-70 -5 -85 -9 -91 -25 -3 -10 -22 -26 -40 -35 -42 -20
-48 -42 -21 -80 12 -16 21 -36 21 -44 0 -32 27 -41 78 -25 55 18 64 16 126
-37 l47 -41 -16 -43 c-19 -55 -20 -53 12 -49 22 2 29 12 43 53 10 28 32 72 51
98 40 58 33 84 -22 79 -66 -5 -75 -5 -124 3 -32 5 -67 20 -98 43 -46 33 -47
35 -31 53 18 19 54 23 88 10 19 -7 19 -8 -3 -14 -13 -3 -21 -11 -19 -19 5 -14
32 -15 60 -3 12 4 25 -1 43 -19 39 -39 48 -34 40 27 -6 49 -26 79 -49 75 -6
-1 -49 -4 -95 -7z"/>
<path d="M4860 6219 c0 -12 37 -39 54 -39 26 0 56 19 56 35 0 10 -13 13 -55
12 -30 -1 -55 -5 -55 -8z"/>
<path d="M3355 6130 c-4 -6 -3 -16 3 -22 6 -6 12 -6 17 2 4 6 3 16 -3 22 -6 6
-12 6 -17 -2z"/>
<path d="M5798 6074 c-3 -3 -37 -10 -74 -15 -76 -11 -165 -34 -204 -54 -14 -7
-43 -18 -65 -25 -71 -23 -245 -125 -363 -213 -75 -56 -266 -244 -360 -355 -95
-110 -118 -139 -199 -252 -59 -82 -220 -325 -240 -360 -10 -19 -31 -54 -46
-77 -15 -24 -27 -45 -27 -48 0 -3 -12 -24 -27 -48 -59 -92 -315 -614 -365
-742 -97 -249 -115 -317 -130 -482 -14 -158 -4 -225 44 -279 43 -48 29 -60
-82 -68 -50 -4 -102 -11 -115 -16 -38 -14 -155 -24 -155 -13 0 5 16 54 36 109
32 89 50 147 74 239 20 75 53 160 73 186 17 24 19 34 11 56 -19 54 -102 56
-132 4 -9 -16 -39 -44 -66 -62 -46 -30 -155 -107 -181 -126 -49 -37 -239 -156
-301 -189 -60 -32 -104 -28 -104 8 0 24 135 246 207 340 24 32 66 77 93 100
55 48 63 74 25 88 -20 8 -41 2 -116 -35 -50 -24 -97 -50 -105 -56 -8 -7 -14
-30 -14 -58 0 -30 -8 -58 -22 -81 -40 -64 -86 -148 -163 -299 -55 -108 -57
-116 -44 -140 8 -14 22 -27 31 -29 9 -2 76 27 149 63 202 101 390 222 502 325
59 54 77 61 77 31 0 -33 -89 -384 -116 -458 -15 -41 -16 -42 -72 -48 -31 -3
-84 -13 -118 -21 -33 -8 -71 -14 -85 -14 -14 0 -29 -4 -35 -9 -5 -5 -34 -13
-64 -19 -69 -13 -159 -36 -230 -57 -30 -9 -77 -23 -105 -30 -69 -18 -131 -39
-194 -64 -32 -13 -58 -18 -63 -13 -6 6 3 35 21 74 17 36 31 68 31 72 0 4 14
37 30 73 17 35 30 68 30 73 0 5 9 26 19 47 11 21 31 65 46 98 136 298 253 511
446 808 44 67 89 140 100 161 39 72 38 72 278 80 119 3 245 11 281 16 36 5
118 10 183 10 105 0 119 2 138 21 43 43 33 44 -362 45 -206 0 -380 4 -387 8
-7 4 -12 11 -12 15 0 4 29 46 65 92 380 492 570 682 733 734 55 18 67 40 36
66 -16 13 -37 8 -129 -30 -22 -10 -60 -26 -85 -36 -78 -33 -94 -47 -201 -170
-267 -307 -438 -523 -480 -607 -40 -79 -39 -78 -169 -78 -118 0 -140 -6 -140
-40 0 -22 28 -47 62 -55 41 -10 68 -42 68 -78 0 -23 -14 -52 -47 -98 -27 -35
-53 -73 -60 -84 -6 -11 -36 -60 -67 -110 -30 -49 -64 -108 -77 -130 -88 -159
-136 -250 -166 -315 -19 -41 -52 -111 -73 -155 -21 -44 -49 -105 -63 -135 -39
-85 -112 -268 -132 -335 -11 -33 -23 -65 -28 -72 -4 -6 -65 -30 -135 -53 -114
-37 -273 -95 -327 -120 -71 -32 -115 -50 -124 -50 -10 0 -345 -169 -411 -207
-176 -102 -293 -187 -409 -298 -238 -228 -303 -442 -210 -695 61 -168 295
-388 509 -478 130 -55 221 -72 379 -72 115 0 157 4 233 24 167 42 286 98 440
206 148 104 365 330 486 507 89 131 88 129 143 147 226 73 592 373 805 658
109 147 194 332 194 425 0 66 -53 166 -117 221 -29 25 -53 49 -53 53 0 16 70
20 376 21 288 1 323 0 357 -17 72 -34 83 -76 41 -161 -24 -50 -76 -107 -133
-146 -15 -11 -21 -23 -18 -32 7 -19 38 -20 87 -5 44 14 214 47 304 59 38 5 76
12 84 15 13 5 66 14 257 45 289 47 465 89 484 117 3 5 14 12 24 16 15 5 15 10
5 26 -9 15 -9 23 1 34 13 16 93 47 120 47 9 0 75 18 146 42 90 29 139 50 160
70 33 30 75 38 75 14 0 -8 -8 -17 -17 -19 -10 -3 -3 -5 15 -6 29 -1 32 -4 32
-31 0 -24 -6 -33 -27 -43 -16 -6 -34 -20 -41 -29 -7 -10 -23 -18 -36 -18 -12
0 -26 -4 -31 -9 -6 -6 -68 -39 -140 -75 -121 -62 -133 -66 -177 -60 -28 4 -53
2 -60 -4 -7 -5 -57 -33 -110 -61 -54 -28 -226 -135 -382 -238 -325 -214 -508
-332 -550 -353 -36 -19 -44 -39 -21 -56 26 -19 44 -13 243 86 264 130 327 160
336 160 19 0 66 43 66 60 0 13 24 30 83 59 45 23 89 46 97 51 8 5 35 18 60 30
25 12 86 43 135 70 50 26 110 58 135 69 25 12 59 29 75 38 156 81 213 111 230
121 11 6 43 21 70 33 28 12 52 25 55 29 3 3 26 17 53 30 26 13 47 27 47 32 0
11 38 10 45 -2 7 -12 -16 -50 -32 -50 -6 0 -18 -6 -25 -14 -8 -7 -24 -17 -36
-20 -12 -4 -22 -12 -22 -17 0 -5 -7 -9 -16 -9 -14 0 -94 -39 -104 -51 -3 -3
-17 -9 -32 -13 -37 -9 -36 -26 2 -26 17 0 30 5 30 10 0 6 11 15 25 20 14 5 25
14 25 20 0 5 13 10 29 10 15 0 49 11 75 25 26 14 54 25 62 25 8 0 24 15 35 34
17 30 25 34 71 38 59 6 83 28 73 68 -4 14 -7 37 -6 53 0 31 -27 38 -52 12 -12
-12 -13 -21 -4 -45 16 -41 2 -53 -46 -38 -42 13 -66 43 -48 61 16 16 14 42 -4
57 -11 9 -14 23 -9 45 4 23 1 37 -11 48 -35 36 -59 33 -250 -34 -16 -6 -52
-17 -80 -24 -53 -14 -139 -38 -215 -60 -106 -31 -167 -48 -195 -55 -16 -4 -86
-24 -155 -45 -115 -34 -189 -55 -265 -75 -16 -5 -43 -13 -60 -18 -16 -6 -55
-18 -85 -26 -119 -34 -277 -89 -325 -113 -107 -54 -120 -51 -74 18 46 69 39
109 -34 187 -59 62 -99 76 -219 73 -125 -2 -136 8 -60 51 74 41 197 170 188
195 -9 23 -26 15 -84 -43 -102 -101 -229 -174 -302 -174 -44 0 -95 32 -127 79
-21 30 -23 46 -23 146 0 135 16 218 89 465 6 19 16 27 47 32 104 17 215 38
274 52 223 51 400 99 520 141 248 85 272 85 144 1 -222 -148 -453 -447 -499
-646 -8 -36 -20 -86 -26 -113 -9 -40 -8 -55 8 -99 23 -66 105 -141 179 -165
50 -15 53 -15 134 11 45 14 115 43 154 63 39 19 85 42 102 51 44 21 60 50 40
70 -14 14 -25 11 -113 -35 -129 -67 -192 -86 -280 -87 -89 -1 -120 18 -145 90
-14 44 -15 57 -2 124 16 83 84 228 143 305 l36 47 350 2 c389 2 394 3 502 73
62 40 76 56 71 80 -5 29 -32 26 -74 -8 -70 -56 -117 -71 -254 -80 -69 -4 -165
-11 -215 -15 l-90 -7 25 20 c14 10 46 27 71 36 72 27 136 72 166 118 39 60 39
141 0 193 -15 20 -40 39 -55 42 -78 17 -78 24 5 48 121 36 386 133 478 176 11
5 43 18 70 30 90 39 119 52 235 109 131 65 125 62 242 131 173 101 266 170
379 282 190 187 264 360 238 558 -12 99 -32 149 -97 248 -112 169 -335 325
-527 367 -38 9 -89 20 -113 25 -45 11 -205 14 -214 4z m252 -79 c41 -9 91 -21
110 -26 39 -12 177 -76 194 -90 6 -5 34 -26 61 -46 120 -89 204 -195 241 -303
25 -73 25 -224 0 -295 -50 -143 -204 -323 -401 -470 -164 -123 -474 -291 -750
-406 -11 -4 -40 -17 -65 -27 -25 -11 -67 -28 -95 -38 -27 -10 -61 -24 -75 -31
-14 -7 -33 -13 -42 -13 -9 0 -20 -4 -23 -10 -3 -5 -14 -10 -23 -10 -9 -1 -35
-9 -57 -20 -22 -11 -47 -19 -55 -20 -9 0 -20 -4 -25 -8 -6 -5 -41 -19 -80 -31
-38 -12 -84 -26 -101 -31 -60 -20 -365 -100 -544 -144 -58 -14 -118 -30 -135
-35 -16 -6 -48 -13 -70 -16 -22 -4 -68 -16 -103 -27 -50 -16 -66 -17 -77 -8
-13 11 -13 16 0 39 8 14 42 85 75 156 351 753 800 1379 1200 1672 162 118 186
129 221 97 11 -10 25 -13 39 -9 20 6 20 7 3 20 -17 13 -17 14 1 34 24 27 56
27 63 1 6 -24 26 -21 31 3 2 10 -3 17 -12 17 -31 0 -16 29 22 41 135 46 341
60 472 34z m-946 -1971 c22 -21 20 -72 -3 -110 -56 -91 -241 -193 -398 -219
-41 -6 -43 -6 -43 18 0 14 4 27 9 29 5 2 51 41 101 87 91 84 188 160 245 193
38 22 69 23 89 2z m-1634 -1044 c9 -6 10 -10 3 -10 -7 0 -24 -12 -37 -27 -21
-23 -23 -30 -13 -41 14 -13 31 -9 87 23 69 40 150 -1 183 -91 22 -63 21 -114
-3 -191 -56 -181 -178 -352 -414 -586 -129 -128 -185 -175 -300 -252 -144 -98
-183 -114 -170 -72 4 12 19 38 33 57 15 19 37 55 50 80 13 25 34 56 47 70 12
14 31 48 42 75 11 28 38 87 61 132 22 44 41 84 41 87 0 3 13 34 29 68 110 236
241 574 241 620 0 47 78 85 120 58z m-198 -55 c-2 -11 -19 -56 -37 -100 -18
-44 -51 -129 -74 -190 -125 -326 -437 -933 -504 -980 -33 -23 -182 -20 -254 5
-156 55 -223 224 -202 515 9 130 38 305 58 357 5 13 17 52 27 88 22 81 27 88
73 96 35 6 123 30 226 61 160 48 327 90 560 143 22 5 51 13 65 19 39 16 66 10
62 -14z m-1072 -285 c0 -10 -21 -82 -65 -220 -49 -157 -48 -495 3 -595 16 -33
60 -89 109 -140 64 -66 198 -111 301 -101 78 8 81 -5 18 -78 -24 -28 -70 -85
-103 -126 -205 -255 -475 -458 -688 -517 -79 -22 -215 -43 -275 -42 -88 0
-262 31 -325 59 -141 61 -280 152 -360 237 -103 110 -165 250 -165 373 0 260
256 544 724 804 66 36 121 66 122 66 2 0 50 22 106 49 127 60 328 147 388 168
52 17 128 50 150 63 21 12 60 12 60 0z"/>
<path d="M5583 5847 c-30 -13 -29 -36 2 -66 14 -13 25 -26 25 -30 0 -14 79
-91 94 -91 24 0 56 50 56 86 0 26 -4 34 -18 34 -10 0 -23 -5 -28 -10 -7 -7
-16 -4 -28 9 -16 18 -16 20 5 35 18 12 20 18 10 30 -14 17 -85 19 -118 3z"/>
<path d="M5460 5791 c0 -29 18 -36 41 -15 27 24 24 34 -11 34 -23 0 -30 -5
-30 -19z"/>
<path d="M5291 5601 c-12 -8 -13 -12 -2 -25 8 -9 21 -31 30 -49 31 -62 114
-34 126 43 6 35 6 35 -11 13 -11 -16 -27 -23 -50 -23 -26 0 -33 4 -36 23 -3
24 -33 33 -57 18z"/>
<path d="M5678 5559 c-10 -5 -18 -18 -18 -28 0 -21 36 -61 55 -61 8 0 20 -9
27 -20 7 -11 16 -20 20 -20 5 0 8 9 8 20 0 11 -7 20 -15 20 -10 0 -15 10 -15
33 0 20 -8 41 -18 50 -21 20 -21 20 -44 6z"/>
<path d="M5556 5533 l-30 -16 28 -14 c25 -13 30 -13 44 0 14 15 11 47 -5 47
-4 -1 -21 -8 -37 -17z"/>
<path d="M5968 5508 c-34 -12 -36 -42 -8 -78 11 -14 20 -39 20 -57 0 -37 15
-50 37 -32 13 11 18 10 34 -10 20 -24 49 -23 49 3 0 8 -22 34 -49 57 -49 42
-49 43 -35 72 12 22 13 32 3 43 -13 16 -14 16 -51 2z"/>
<path d="M5835 5491 c-8 -25 3 -49 28 -63 16 -8 23 -7 34 8 17 24 17 30 -7 54
-25 25 -47 26 -55 1z"/>
<path d="M5460 5479 c0 -14 -5 -30 -11 -36 -8 -8 1 -13 31 -18 l42 -7 -7 -84
c-7 -87 -3 -95 31 -70 26 20 23 127 -5 155 -10 10 -20 22 -22 27 -2 5 -16 20
-32 33 l-27 24 0 -24z"/>
<path d="M6090 5460 c0 -5 7 -10 15 -10 8 0 15 5 15 10 0 6 -7 10 -15 10 -8 0
-15 -4 -15 -10z"/>
<path d="M5640 5355 c0 -8 7 -15 15 -15 8 0 15 7 15 15 0 8 -7 15 -15 15 -8 0
-15 -7 -15 -15z"/>
<path d="M5783 5343 c-19 -2 -33 -10 -33 -17 0 -8 -7 -19 -15 -26 -19 -16 -19
-26 0 -34 8 -3 28 6 44 19 16 14 33 25 39 25 5 0 13 7 16 16 8 22 8 24 -6 22
-7 0 -28 -3 -45 -5z"/>
<path d="M6005 5227 c-11 -9 -16 -20 -12 -31 8 -20 21 -20 42 0 29 29 4 55
-30 31z"/>
<path d="M5737 5173 c-11 -11 -8 -21 10 -27 17 -7 36 12 27 26 -6 10 -28 10
-37 1z"/>
<path d="M5847 5122 c-9 -9 -28 -43 -42 -75 -29 -62 -28 -94 2 -79 10 5 32 7
49 5 41 -6 56 15 26 35 -26 17 -29 54 -7 72 17 14 17 51 -1 57 -6 2 -18 -5
-27 -15z m-12 -100 c0 -18 -20 -15 -23 4 -3 10 1 15 10 12 7 -3 13 -10 13 -16z"/>
<path d="M6114 5045 c-8 -19 3 -35 26 -35 19 0 34 25 24 41 -8 14 -44 10 -50
-6z"/>
<path d="M5537 5043 c-12 -11 -8 -23 8 -23 8 0 15 7 15 15 0 16 -12 20 -23 8z"/>
<path d="M6270 5006 c-6 -16 -18 -26 -36 -28 -38 -4 -41 -24 -5 -42 42 -22 81
-21 81 2 0 10 5 23 11 29 7 7 9 23 5 37 -8 34 -43 35 -56 2z"/>
<path d="M5882 4892 c-17 -12 -4 -42 18 -42 16 0 30 18 30 41 0 11 -30 12 -48
1z"/>
<path d="M5355 4870 c-10 -16 16 -43 28 -31 11 11 2 41 -12 41 -5 0 -13 -5
-16 -10z"/>
<path d="M5293 4834 c-7 -18 11 -39 26 -30 17 11 13 46 -4 46 -9 0 -18 -7 -22
-16z"/>
<path d="M5560 4791 c0 -25 20 -38 31 -20 15 23 10 39 -11 39 -13 0 -20 -7
-20 -19z"/>
<path d="M4887 4784 c-13 -13 -7 -24 14 -24 11 0 19 5 17 12 -5 14 -22 21 -31
12z"/>
<path d="M5412 4778 c3 -7 13 -15 22 -16 12 -3 17 1 14 10 -3 7 -13 15 -22 16
-12 3 -17 -1 -14 -10z"/>
<path d="M2901 2556 c-16 -20 -6 -66 14 -66 21 0 31 48 13 66 -13 13 -16 13
-27 0z"/>
<path d="M2576 2544 c-12 -31 3 -34 22 -4 10 16 10 20 -2 20 -8 0 -17 -7 -20
-16z"/>
<path d="M2897 2413 c-7 -12 11 -53 23 -53 11 0 12 6 4 38 -6 22 -19 29 -27
15z"/>
<path d="M2430 1775 c0 -8 5 -15 10 -15 6 0 10 7 10 15 0 8 -4 15 -10 15 -5 0
-10 -7 -10 -15z"/>
<path d="M1790 2305 c0 -14 5 -25 10 -25 6 0 10 11 10 25 0 14 -4 25 -10 25
-5 0 -10 -11 -10 -25z"/>
<path d="M1620 2290 c0 -6 7 -13 15 -16 21 -8 67 4 60 16 -8 13 -75 13 -75 0z"/>
<path d="M1710 2174 c-39 -27 -54 -76 -39 -127 10 -36 105 -127 132 -127 11 0
31 9 43 21 21 19 21 22 6 38 -10 9 -24 16 -32 14 -8 -2 -32 3 -52 11 -30 13
-39 24 -48 56 -12 44 -5 69 13 51 21 -21 27 -11 27 39 0 28 -3 50 -7 50 -5 -1
-24 -12 -43 -26z"/>
<path d="M1895 1860 c-8 -27 11 -59 40 -66 31 -8 45 2 45 31 0 48 -71 78 -85
35z"/>
<path d="M2026 1791 c-17 -18 -17 -20 2 -30 22 -12 32 -6 32 20 0 27 -15 31
-34 10z"/>
<path d="M2083 1649 c-22 -8 -31 -33 -15 -42 13 -8 52 12 52 27 0 21 -11 25
-37 15z"/>
<path d="M2097 1563 c-16 -15 -5 -58 23 -92 16 -20 41 -49 55 -66 13 -16 31
-39 39 -50 17 -24 21 -16 30 58 6 47 5 47 -24 47 -28 0 -30 2 -30 39 0 23 -7
46 -16 55 -15 16 -65 22 -77 9z"/>
<path d="M4978 6013 c-2 -5 -2 -24 2 -43 5 -33 6 -34 17 -14 7 11 9 30 6 42
-5 22 -18 29 -25 15z"/>
<path d="M4840 5873 c1 -12 68 -88 73 -83 2 3 7 20 10 38 6 29 3 34 -19 42
-30 12 -64 13 -64 3z"/>
<path d="M4410 5842 c0 -24 8 -32 26 -25 10 4 11 9 1 24 -15 24 -27 24 -27 1z"/>
<path d="M4175 5635 c4 -11 10 -28 12 -37 6 -21 33 -24 33 -5 0 8 -12 24 -27
38 -23 21 -25 22 -18 4z"/>
<path d="M3699 5608 c-56 -40 -63 -47 -121 -124 -26 -34 -50 -73 -54 -88 -3
-14 -10 -29 -15 -32 -5 -3 -9 -15 -9 -28 0 -30 -38 -64 -79 -72 -57 -12 -59
32 -4 118 13 21 23 40 23 43 0 4 11 21 25 40 23 30 24 34 10 48 -12 12 -22 13
-47 6 -18 -5 -34 -9 -35 -9 -1 0 -8 -6 -15 -13 -7 -7 -27 -21 -44 -32 -44 -28
-104 -82 -104 -95 0 -16 16 -12 42 9 12 11 39 34 59 50 20 17 42 31 48 31 17
0 13 -24 -8 -51 -62 -80 -78 -172 -33 -195 32 -16 88 -3 121 29 33 30 52 28
88 -10 36 -38 92 -29 181 27 50 33 13 59 -42 29 -20 -11 -56 -19 -81 -19 l-45
0 0 40 c0 24 11 62 25 90 l25 50 78 1 c42 0 98 0 125 -1 26 -1 68 6 92 16 39
14 45 21 45 45 0 16 -2 29 -5 29 -2 0 -27 -13 -55 -30 -47 -27 -110 -41 -110
-22 0 4 12 18 25 31 47 44 24 121 -36 121 -13 0 -45 -15 -70 -32z m81 -36 c0
-23 -33 -52 -82 -75 -61 -27 -48 11 22 66 41 31 60 34 60 9z"/>
<path d="M2057 5580 c-23 -18 -25 -24 -15 -45 14 -31 34 -38 74 -25 35 12 49
37 39 70 -9 27 -64 27 -98 0z"/>
<path d="M2978 5569 c-25 -14 -24 -59 2 -59 22 0 44 34 36 56 -6 16 -15 17
-38 3z"/>
<path d="M2787 5534 c-11 -11 -8 -159 3 -188 12 -31 28 -32 77 -5 46 25 73 55
73 80 0 24 -25 35 -44 19 -26 -21 -54 4 -58 53 -2 33 -7 43 -23 45 -12 2 -24
0 -28 -4z"/>
<path d="M2312 5496 c1 -10 8 -17 13 -17 15 1 12 24 -3 29 -9 3 -13 -2 -10
-12z"/>
<path d="M4170 5484 c-11 -29 -13 -55 -4 -78 10 -27 21 -18 29 22 3 20 9 47
12 60 8 32 -25 29 -37 -4z"/>
<path d="M2362 5453 c3 -19 48 -32 48 -14 0 10 -31 31 -45 31 -4 0 -5 -8 -3
-17z"/>
<path d="M4199 5283 c-14 -2 -41 -17 -60 -33 l-34 -28 29 -7 c20 -6 45 -1 85
15 69 28 67 26 51 45 -12 15 -20 16 -71 8z"/>
<path d="M4372 5171 c4 -13 18 -16 19 -4 0 4 -5 9 -11 12 -7 2 -11 -2 -8 -8z"/>
<path d="M2435 5150 c-148 -18 -239 -39 -370 -87 -160 -59 -329 -162 -387
-235 -60 -77 -73 -113 -73 -202 1 -132 39 -211 213 -444 65 -87 134 -182 155
-213 20 -30 68 -91 107 -136 38 -44 70 -87 70 -95 0 -12 -22 -16 -100 -22 -55
-3 -119 -10 -143 -16 -23 -5 -91 -19 -152 -31 -168 -33 -326 -77 -410 -114
-126 -55 -156 -71 -202 -106 -76 -57 -105 -107 -106 -183 -2 -124 89 -214 264
-261 77 -21 344 -35 445 -24 150 16 406 113 482 183 134 122 169 313 85 469
-26 48 -14 56 79 53 89 -3 148 12 148 38 0 9 -12 19 -26 22 -30 8 -156 -3
-201 -17 -18 -6 -39 -7 -46 -2 -8 4 -86 103 -172 218 -87 116 -162 212 -165
215 -20 14 -132 164 -168 225 -85 143 -102 247 -57 344 63 136 288 266 575
333 124 29 458 37 561 14 141 -31 222 -87 271 -186 20 -39 23 -60 23 -165 0
-99 3 -120 15 -120 25 0 53 92 53 180 1 175 -78 275 -272 349 -35 14 -87 18
-235 21 -105 2 -222 0 -261 -5z m-197 -1555 c64 -147 42 -258 -71 -361 -114
-105 -325 -179 -543 -190 -343 -19 -574 93 -515 248 36 96 315 239 561 289 25
5 56 13 70 19 14 5 54 15 90 20 169 28 238 40 275 49 86 20 95 15 133 -74z"/>
<path d="M2122 3533 c5 -26 38 -29 38 -4 0 15 -6 21 -21 21 -14 0 -19 -5 -17
-17z"/>
<path d="M1852 3348 c-16 -16 -15 -53 2 -67 23 -19 56 3 56 38 0 37 -33 54
-58 29z"/>
<path d="M6966 4958 c-9 -12 -16 -32 -16 -43 0 -25 27 -65 44 -65 29 0 49 27
48 65 -2 64 -45 88 -76 43z"/>
<path d="M2850 4910 c-6 -12 -10 -35 -8 -53 3 -29 6 -32 36 -32 34 -1 42 9 17
19 -9 3 -15 18 -15 40 0 42 -15 54 -30 26z"/>
<path d="M2228 4879 c-26 -14 -22 -48 6 -60 14 -7 26 -23 30 -40 6 -32 30 -39
44 -11 18 33 24 93 11 108 -13 16 -66 18 -91 3z"/>
<path d="M2530 4760 c-10 -6 -11 -13 -5 -19 6 -6 16 -7 25 -1 10 6 11 13 5 19
-6 6 -16 7 -25 1z"/>
<path d="M2871 4688 c-10 -28 -4 -48 15 -48 9 0 14 11 14 29 0 38 -18 49 -29
19z"/>
<path d="M2790 4650 c0 -13 5 -20 13 -17 6 2 12 10 12 17 0 7 -6 15 -12 18 -8
2 -13 -5 -13 -18z"/>
<path d="M2940 4600 c0 -12 35 -31 44 -23 8 9 -14 33 -30 33 -8 0 -14 -4 -14
-10z"/>
<path d="M7973 4568 c-6 -7 -26 -47 -46 -88 -48 -104 -80 -140 -122 -140 -19
0 -46 5 -62 11 -63 26 -146 35 -205 23 -107 -22 -173 -91 -227 -234 -18 -47
-40 -100 -48 -117 -24 -49 -79 -99 -131 -118 -63 -24 -169 -94 -213 -141 -20
-22 -61 -74 -91 -116 -55 -79 -114 -134 -154 -144 -28 -7 -37 -29 -24 -55 12
-21 32 -24 60 -9 10 5 26 7 34 4 21 -8 20 -51 -1 -63 -14 -8 -15 -12 -4 -25 7
-9 11 -25 8 -35 -5 -22 22 -50 66 -69 23 -10 28 -18 25 -40 -2 -22 -9 -28 -38
-32 -27 -4 -35 -10 -35 -25 0 -19 5 -20 142 -16 134 3 150 1 265 -29 68 -17
131 -35 140 -40 14 -8 16 -5 11 25 -3 19 -2 35 1 35 39 0 102 -95 92 -136 -6
-22 -4 -25 9 -20 19 7 76 -52 103 -105 12 -24 34 -42 77 -62 52 -26 71 -30
150 -31 72 0 99 4 135 21 91 42 155 140 163 247 3 53 0 68 -30 125 -36 72
-158 233 -193 258 -29 20 -59 5 -85 -43 -19 -36 -60 -64 -92 -64 -20 0 -122
-37 -138 -50 -6 -5 -39 -23 -74 -40 -57 -29 -71 -31 -164 -32 -79 0 -114 4
-157 20 -30 12 -75 28 -100 37 -25 9 -67 28 -95 42 -27 14 -65 25 -82 26 -41
1 -41 7 -4 110 45 126 80 185 156 262 55 56 90 80 165 116 168 82 190 84 304
24 76 -41 84 -40 193 11 51 24 84 49 117 87 65 73 87 124 98 225 6 56 17 103
32 132 13 25 47 90 75 144 46 89 50 101 38 119 -17 27 -31 31 -44 15z m-265
-308 c29 -24 52 -26 52 -5 0 23 18 18 26 -7 4 -13 12 -26 18 -30 8 -5 8 -13
-1 -28 -7 -11 -13 -36 -13 -55 0 -66 -61 -154 -133 -190 -17 -9 -57 -19 -88
-22 -53 -5 -61 -3 -111 31 -62 41 -95 96 -85 144 15 75 99 165 171 183 48 12
135 1 164 -21z m118 -1015 c62 -18 127 -80 148 -141 13 -39 13 -49 0 -86 -36
-103 -107 -151 -224 -152 -88 0 -132 19 -195 84 -38 39 -40 43 -40 108 0 55 4
73 23 97 30 38 77 68 132 84 25 8 50 15 55 16 23 7 54 4 101 -10z"/>
<path d="M2714 4550 c-27 -11 -38 -39 -19 -46 23 -9 62 4 69 22 12 31 -8 41
-50 24z"/>
<path d="M1962 4513 c-11 -16 -25 -45 -31 -65 -7 -21 -16 -38 -21 -38 -4 0 -3
-11 3 -24 10 -20 13 -22 20 -10 5 9 29 24 53 34 48 21 54 34 24 50 -16 9 -18
15 -10 36 14 35 13 44 -4 44 -8 0 -23 -12 -34 -27z"/>
<path d="M2453 4513 c-17 -6 -16 -25 2 -49 13 -16 16 -17 25 -4 21 32 5 64
-27 53z"/>
<path d="M1862 4409 c2 -6 8 -10 13 -10 5 0 11 4 13 10 2 6 -4 11 -13 11 -9 0
-15 -5 -13 -11z"/>
<path d="M6120 4385 c0 -2 21 -14 46 -26 33 -15 49 -18 57 -10 8 8 5 11 -10
11 -12 0 -23 4 -25 8 -3 9 -68 25 -68 17z"/>
<path d="M6252 4348 c6 -16 36 -34 44 -26 3 4 4 14 1 23 -7 17 -51 21 -45 3z"/>
<path d="M2493 4334 c-3 -8 1 -23 10 -31 14 -15 18 -15 42 1 21 14 24 20 14
32 -15 19 -58 18 -66 -2z"/>
<path d="M6969 4288 c-38 -24 -49 -38 -59 -73 -9 -31 -22 -51 -46 -67 -25 -17
-34 -31 -34 -50 0 -37 22 -36 53 3 33 42 65 34 69 -19 4 -48 38 -57 57 -15
l13 28 27 -34 c18 -22 34 -32 47 -29 24 4 30 41 10 69 -13 19 -13 26 -1 57 20
47 20 50 -20 66 -36 15 -39 19 -49 69 -8 33 -9 33 -67 -5z"/>
<path d="M1990 4302 c0 -12 30 -36 63 -50 24 -10 27 -10 27 9 0 11 -8 22 -17
25 -10 3 -26 10 -35 15 -22 11 -38 12 -38 1z"/>
<path d="M6582 4291 c-20 -12 -5 -128 20 -153 28 -28 53 -19 54 19 2 55 38 78
84 53 13 -7 21 -5 31 6 17 20 -2 35 -78 64 -58 21 -90 25 -111 11z"/>
<path d="M2610 4231 c0 -16 5 -33 10 -36 6 -4 10 6 10 24 0 16 -4 33 -10 36
-6 4 -10 -6 -10 -24z"/>
<path d="M6366 4227 c-23 -17 -17 -51 9 -56 11 -2 24 -9 30 -16 11 -14 79 -27
89 -18 3 4 -4 13 -15 21 -17 12 -20 22 -16 48 l6 34 -43 0 c-23 0 -50 -6 -60
-13z"/>
<path d="M2080 4217 c0 -9 14 -16 42 -20 69 -9 65 16 -4 28 -30 6 -38 4 -38
-8z"/>
<path d="M2415 4150 c-9 -15 13 -40 37 -40 14 0 19 6 16 23 -3 24 -41 36 -53
17z"/>
<path d="M6386 4114 c-4 -9 -4 -19 -2 -21 8 -8 26 8 26 23 0 19 -16 18 -24 -2z"/>
<path d="M1710 4083 c-8 -3 -26 -10 -40 -15 l-25 -10 33 -13 c34 -15 37 -21
22 -45 -8 -12 -13 -13 -30 -2 -30 19 -37 15 -59 -30 -18 -38 -19 -53 -12 -130
5 -48 14 -94 21 -103 19 -23 76 -19 94 6 8 12 25 27 38 33 32 16 33 40 4 56
-32 17 -44 50 -23 65 15 11 57 120 57 149 0 16 -37 47 -55 45 -5 0 -17 -3 -25
-6z"/>
<path d="M6687 4073 c-20 -19 10 -63 44 -63 19 0 25 23 13 54 -6 16 -45 22
-57 9z"/>
<path d="M5964 4025 c-3 -8 -3 -19 1 -25 11 -18 25 -11 25 15 0 27 -17 34 -26
10z"/>
<path d="M2170 4005 c-10 -12 -7 -15 15 -21 28 -7 52 7 41 25 -10 16 -41 14
-56 -4z"/>
<path d="M6615 4010 c-3 -6 -3 -19 0 -31 8 -25 -19 -59 -47 -59 -10 0 -21 -7
-24 -15 -9 -23 16 -46 45 -43 20 2 25 8 24 25 -2 14 5 27 17 33 11 6 20 19 20
28 0 10 5 23 12 30 8 8 8 15 -2 27 -14 17 -36 20 -45 5z"/>
<path d="M6030 3970 c0 -12 33 -30 54 -30 24 0 19 27 -6 34 -33 8 -48 7 -48
-4z"/>
<path d="M5623 3914 c-3 -8 2 -23 11 -32 15 -15 16 -14 16 16 0 33 -16 43 -27
16z"/>
<path d="M2415 3870 c-8 -26 7 -45 30 -36 21 8 16 50 -7 54 -10 2 -19 -5 -23
-18z"/>
<path d="M6175 3811 c-4 -17 -11 -33 -16 -36 -14 -9 -11 -40 8 -79 14 -30 40
-53 49 -44 1 2 4 44 6 93 3 86 2 90 -19 93 -17 2 -23 -3 -28 -27z"/>
<path d="M6343 3822 c-6 -4 -14 -19 -18 -34 -4 -15 -13 -32 -20 -38 -8 -7 -17
-32 -21 -57 -5 -33 -12 -47 -25 -50 -31 -8 -22 -32 26 -65 25 -18 45 -35 45
-39 0 -4 14 -21 31 -38 25 -25 30 -37 27 -68 -3 -34 -6 -38 -28 -36 -108 11
-150 12 -155 4 -7 -12 14 -59 30 -64 6 -3 31 -1 56 3 33 6 48 5 60 -6 22 -19
36 -18 49 6 8 14 19 20 38 18 23 -3 27 1 30 24 4 34 45 68 72 61 22 -6 26 -18
10 -28 -20 -12 -10 -35 15 -35 20 0 25 5 25 24 0 37 -40 62 -108 69 -86 9 -92
13 -92 58 0 28 -8 47 -29 71 -53 61 -16 121 39 63 19 -20 26 -22 43 -13 20 10
20 11 -4 30 -16 13 -20 21 -11 25 7 3 12 23 12 49 0 40 -2 44 -24 44 -13 0
-29 7 -36 15 -14 17 -20 18 -37 7z"/>
<path d="M6485 3786 c-18 -38 -14 -56 14 -56 30 0 39 18 27 55 -6 19 -14 35
-18 35 -4 0 -14 -16 -23 -34z"/>
<path d="M5946 3761 c-10 -16 4 -35 45 -64 22 -15 39 -33 37 -40 -2 -7 -20
-20 -41 -30 -40 -20 -41 -43 -1 -53 18 -5 24 -15 30 -50 8 -59 1 -78 -26 -64
-24 13 -27 -4 -8 -45 15 -33 25 -32 33 5 4 17 13 30 21 30 11 0 13 6 9 20 -8
25 14 62 61 106 40 37 43 61 10 74 -14 5 -35 27 -48 49 -32 56 -104 92 -122
62z"/>
<path d="M6558 3650 c-9 -6 -22 -26 -28 -46 -10 -30 -10 -39 2 -50 12 -13 18
-11 42 11 21 19 27 33 24 57 -3 35 -14 42 -40 28z"/>
<path d="M6433 3567 c-28 -12 -29 -24 -3 -32 23 -7 40 1 40 20 0 20 -12 24
-37 12z"/>
<path d="M6190 3491 c0 -5 6 -14 14 -20 16 -13 32 2 21 19 -8 12 -35 13 -35 1z"/>
<path d="M6571 3314 c-11 -14 -33 -29 -48 -33 -35 -9 -37 -35 -2 -39 21 -2 28
2 33 22 7 27 13 31 33 18 12 -7 4 -116 -12 -154 -11 -28 22 -34 49 -9 12 11
29 21 37 21 8 0 21 5 29 10 12 8 10 14 -14 39 -33 34 -28 51 17 51 23 1 28 3
17 9 -8 5 -34 28 -58 50 -24 23 -47 41 -52 41 -5 0 -18 -12 -29 -26z"/>
<path d="M6384 3223 c-3 -10 -10 -28 -15 -41 -12 -30 -13 -29 16 -36 23 -6 25
-10 25 -71 0 -36 4 -65 9 -65 5 0 18 -3 28 -6 15 -5 15 -4 3 5 -20 14 0 47 25
43 14 -3 16 2 10 27 -4 21 -2 32 9 38 11 6 2 20 -45 66 -49 48 -60 55 -65 40z"/>
<path d="M6220 3195 c0 -8 7 -15 15 -15 8 0 15 7 15 15 0 8 -7 15 -15 15 -8 0
-15 -7 -15 -15z"/>
<path d="M6540 3084 c0 -10 -7 -26 -16 -36 -16 -16 -15 -18 1 -24 26 -11 50 9
50 42 0 19 -6 30 -17 32 -12 2 -18 -3 -18 -14z"/>
<path d="M6730 3064 c0 -12 42 -64 51 -64 20 0 20 29 0 49 -20 20 -51 29 -51
15z"/>
<path d="M6652 3038 c6 -18 28 -21 28 -4 0 9 -7 16 -16 16 -9 0 -14 -5 -12
-12z"/>
<path d="M6354 2996 c-8 -21 3 -49 16 -41 5 3 10 15 10 25 0 25 -18 36 -26 16z"/>
<path d="M6503 2983 c-33 -4 -39 -16 -27 -47 9 -22 17 -20 53 14 34 33 38 41
19 38 -7 0 -28 -3 -45 -5z"/>
<path d="M6590 2939 c-39 -21 -52 -46 -36 -71 16 -26 32 -22 57 12 12 16 26
27 31 24 12 -8 10 -58 -3 -71 -6 -6 -8 -16 -5 -22 12 -19 52 -12 76 14 21 23
22 28 11 65 -20 68 -64 84 -131 49z"/>
<path d="M6915 2950 c-3 -5 1 -10 9 -10 8 0 22 -10 30 -22 19 -27 38 -14 30
20 -5 16 -14 22 -35 22 -15 0 -31 -4 -34 -10z"/>
<path d="M1717 2878 c-8 -24 -18 -56 -22 -72 -7 -32 -21 -25 -27 14 -3 28 -40
39 -64 20 -11 -10 -14 -9 -14 8 0 49 -33 70 -60 37 -13 -15 -12 -20 15 -95 37
-104 50 -120 96 -120 10 0 19 -6 19 -14 0 -7 7 -19 15 -26 19 -15 45 3 45 30
0 10 16 28 35 40 19 12 35 24 35 27 0 3 -16 28 -35 54 -36 51 -45 89 -21 89
19 0 28 14 20 34 -10 26 -20 19 -37 -26z m-107 -104 c0 -8 -7 -14 -15 -14 -17
0 -18 2 -9 24 7 18 24 12 24 -10z m100 -38 c0 -16 -14 -36 -26 -36 -14 0 -19
22 -7 33 7 8 33 10 33 3z"/>
<path d="M6817 2883 c-11 -26 -13 -41 -6 -48 14 -14 51 32 47 58 -5 34 -23 29
-41 -10z"/>
<path d="M1997 2903 c-9 -9 -8 -25 2 -42 7 -11 13 -10 34 4 15 10 24 22 20 31
-5 14 -44 19 -56 7z"/>
<path d="M6350 2870 c0 -23 5 -30 19 -30 21 0 54 38 45 52 -3 4 -18 8 -35 8
-26 0 -29 -3 -29 -30z"/>
<path d="M6245 2860 c-4 -7 -3 -16 3 -22 14 -14 45 -2 40 15 -6 16 -34 21 -43
7z"/>
<path d="M7127 2828 c-9 -23 -15 -43 -12 -46 2 -2 21 4 42 14 46 23 57 58 21
68 -34 9 -34 9 -51 -36z"/>
<path d="M6170 2822 c0 -10 11 -29 25 -42 l25 -23 0 31 c0 21 -7 35 -19 42
-27 14 -31 13 -31 -8z"/>
<path d="M6955 2829 c-4 -6 -5 -13 -2 -16 7 -7 27 6 27 18 0 12 -17 12 -25 -2z"/>
<path d="M6482 2788 c2 -20 13 -38 31 -52 28 -21 29 -21 43 -2 20 28 19 30
-24 60 -49 33 -54 33 -50 -6z"/>
<path d="M5838 2796 c-8 -7 -24 -17 -36 -20 -12 -4 -22 -12 -22 -17 0 -13 37
-11 45 2 4 5 18 14 32 20 13 5 21 13 18 19 -9 14 -21 13 -37 -4z"/>
<path d="M6379 2762 c-11 -13 -30 -17 -82 -17 -69 0 -82 -7 -48 -25 12 -6 21
-23 23 -42 2 -23 9 -34 22 -36 15 -3 17 0 11 14 -17 42 -16 51 3 56 40 11 53
-9 46 -65 -7 -48 -6 -51 9 -38 10 7 17 19 17 27 0 7 9 18 21 24 12 7 18 18 15
26 -3 8 4 28 15 44 12 15 18 33 15 39 -11 17 -50 13 -67 -7z"/>
<path d="M1910 2760 c0 -5 9 -10 20 -10 11 0 20 5 20 10 0 6 -9 10 -20 10 -11
0 -20 -4 -20 -10z"/>
<path d="M6810 2734 c0 -21 4 -33 10 -29 6 3 10 19 10 36 0 16 -4 29 -10 29
-5 0 -10 -16 -10 -36z"/>
<path d="M6690 2742 c0 -4 -19 -29 -43 -55 -42 -47 -64 -56 -84 -36 -15 15
-54 8 -66 -12 -8 -12 -5 -24 10 -45 11 -16 22 -38 24 -49 3 -13 14 -21 32 -23
28 -3 35 10 17 38 -11 18 5 40 31 40 9 0 34 16 55 35 41 39 55 43 74 20 25
-30 31 1 10 48 -15 33 -27 47 -40 47 -11 0 -20 -4 -20 -8z"/>
<path d="M7092 2713 c-53 -49 -51 -98 2 -58 11 8 30 15 43 15 27 0 41 25 26
49 -16 26 -39 24 -71 -6z"/>
<path d="M6207 2603 c-12 -11 -8 -23 8 -23 8 0 15 7 15 15 0 16 -12 20 -23 8z"/>
<path d="M5830 2575 c0 -18 5 -25 20 -25 15 0 20 7 20 25 0 18 -5 25 -20 25
-15 0 -20 -7 -20 -25z"/>
<path d="M6288 2593 c-24 -4 -28 -9 -28 -38 0 -39 24 -58 68 -53 21 2 28 9 30
30 4 32 -13 69 -31 67 -7 -1 -24 -4 -39 -6z"/>
<path d="M6415 2590 c-7 -12 2 -30 16 -30 12 0 12 27 0 35 -5 3 -12 1 -16 -5z"/>
<path d="M6967 2593 c-17 -17 -6 -33 19 -27 20 5 26 2 31 -15 3 -12 16 -24 29
-27 28 -7 29 -12 9 -38 -29 -39 -13 -86 30 -86 51 0 59 50 15 97 -17 18 -30
39 -30 48 0 8 -8 19 -17 22 -10 4 -22 12 -26 20 -8 14 -49 18 -60 6z"/>
<path d="M6710 2580 c0 -5 7 -10 15 -10 8 0 15 5 15 10 0 6 -7 10 -15 10 -8 0
-15 -4 -15 -10z"/>
<path d="M6680 2505 c-17 -20 -2 -68 21 -73 25 -5 30 25 10 58 -16 27 -20 29
-31 15z"/>
<path d="M6862 2480 c14 -22 24 -19 15 5 -4 8 -11 15 -17 15 -6 0 -6 -7 2 -20z"/>
<path d="M6410 2471 c0 -12 6 -21 16 -21 9 0 14 7 12 17 -5 25 -28 28 -28 4z"/>
<path d="M6906 2450 c-27 -33 -34 -60 -14 -60 6 0 19 -7 29 -16 16 -14 18 -14
29 6 14 25 9 92 -6 97 -6 2 -23 -10 -38 -27z"/>
<path d="M5693 2390 c-104 -35 -206 -103 -314 -210 -91 -91 -140 -148 -203
-238 -49 -71 -74 -91 -112 -92 -35 0 -97 -53 -92 -79 2 -9 16 -22 31 -29 28
-14 35 -40 16 -59 -6 -6 -17 -22 -23 -35 -10 -19 -21 -24 -71 -28 -48 -4 -71
-13 -118 -44 -64 -43 -169 -153 -192 -203 -19 -40 -44 -65 -56 -58 -24 16 1
93 67 204 35 59 37 84 6 96 -11 4 -33 -12 -71 -53 -56 -58 -198 -192 -239
-224 -26 -21 -52 -23 -52 -5 1 25 85 186 122 232 5 6 17 21 29 35 20 24 23 65
4 65 -46 0 -199 -238 -211 -328 -12 -88 34 -99 133 -31 53 38 173 158 173 175
0 5 4 9 9 9 21 0 20 -20 0 -59 -15 -29 -20 -54 -17 -89 3 -44 0 -51 -27 -75
-23 -20 -27 -28 -18 -38 9 -9 18 -9 42 1 40 16 61 1 61 -45 0 -46 -25 -100
-78 -170 -57 -74 -67 -84 -117 -121 -22 -16 -52 -41 -67 -55 -37 -36 -167 -83
-206 -75 -16 4 -42 21 -58 37 -29 30 -29 32 -28 142 2 90 6 123 24 167 12 30
28 73 35 95 44 137 137 326 213 432 12 17 22 36 22 41 0 5 13 24 29 41 l29 31
150 0 c121 0 152 3 162 15 9 11 10 19 1 28 -8 11 -41 13 -146 9 -151 -5 -158
-2 -107 54 15 17 45 52 67 80 51 62 146 154 161 154 6 0 19 9 29 20 31 34 6
46 -50 24 -64 -26 -217 -188 -276 -293 -21 -38 -26 -41 -65 -41 -57 0 -70 -18
-39 -54 l25 -29 -28 -36 c-46 -61 -65 -97 -202 -386 -71 -150 -91 -225 -96
-365 -4 -91 -3 -97 24 -135 35 -49 95 -85 145 -85 57 0 168 39 197 70 3 3 24
18 47 33 95 65 224 223 252 309 14 44 9 67 -25 108 -32 38 -24 51 29 44 37 -5
49 0 104 36 58 38 105 82 166 155 14 17 29 27 33 22 4 -4 2 -13 -4 -19 -7 -7
-12 -24 -12 -39 0 -15 -7 -32 -15 -39 -12 -10 -15 -29 -13 -74 3 -58 4 -61 31
-64 30 -4 34 9 13 47 -12 21 -12 31 0 64 8 22 14 46 14 53 0 33 123 269 157
301 13 12 23 29 23 38 0 9 19 42 43 73 24 31 58 78 75 104 18 25 38 52 44 60
7 7 42 46 77 86 65 74 179 174 242 211 96 57 122 65 227 69 90 3 107 1 145
-18 75 -39 127 -103 127 -157 0 -39 -46 -118 -93 -159 -54 -47 -188 -121 -277
-152 -36 -12 -74 -27 -85 -32 -37 -17 -157 -50 -181 -50 -13 0 -32 -4 -42 -10
-9 -5 -64 -14 -122 -19 -155 -15 -175 -23 -188 -72 -8 -33 -8 -41 5 -46 19 -7
61 16 68 38 8 24 18 27 162 40 70 6 136 15 145 20 9 5 29 9 45 9 15 0 40 6 54
13 14 8 43 17 65 20 22 4 53 13 70 21 16 7 45 20 64 27 237 94 360 210 360
339 0 88 -45 151 -156 217 -46 28 -59 31 -135 31 -65 0 -103 -7 -166 -28z
m-611 -605 c-14 -30 -39 -42 -55 -26 -8 8 -3 19 18 41 34 35 56 26 37 -15z
m-147 -215 c9 -15 -24 -70 -48 -79 -12 -5 -33 -19 -47 -32 -73 -68 -148 -129
-158 -129 -7 0 -12 11 -12 25 0 17 23 47 78 103 42 43 91 87 107 99 32 23 70
29 80 13z"/>
<path d="M6474 2395 c-10 -25 4 -45 28 -42 17 1 22 -3 20 -15 -1 -10 4 -31 13
-48 l16 -31 31 18 c35 21 45 40 30 55 -7 7 -7 16 1 30 17 26 -6 38 -50 26 -27
-7 -40 -6 -59 7 -22 14 -25 14 -30 0z"/>
<path d="M6472 2319 c2 -6 8 -10 13 -10 5 0 11 4 13 10 2 6 -4 11 -13 11 -9 0
-15 -5 -13 -11z"/>
<path d="M6744 2306 c-3 -13 -4 -34 -2 -47 2 -19 9 -23 41 -25 21 0 40 3 44 8
3 6 -3 27 -12 49 -22 47 -61 55 -71 15z"/>
<path d="M6472 2213 c2 -10 10 -18 18 -18 8 0 16 8 18 18 2 12 -3 17 -18 17
-15 0 -20 -5 -18 -17z"/>
<path d="M4050 2110 c-8 -5 -28 -10 -45 -10 -44 0 -170 -67 -210 -112 -29 -32
-35 -46 -35 -84 0 -59 39 -140 104 -218 109 -129 110 -136 17 -136 -39 0 -73
-4 -76 -10 -3 -5 -17 -10 -30 -10 -26 0 -112 -31 -160 -57 -39 -21 -85 -72
-85 -93 0 -34 31 -76 77 -105 46 -29 53 -30 143 -27 52 1 99 7 104 12 6 6 19
10 30 10 34 1 109 39 138 70 34 38 52 93 44 140 -4 27 -2 41 9 50 22 18 18 28
-12 28 -26 -1 -32 5 -83 71 -14 18 -49 63 -79 99 -52 64 -91 137 -91 169 0 26
30 67 69 95 88 63 344 92 417 48 28 -18 57 -68 59 -104 1 -21 26 -16 36 8 24
53 -40 156 -97 156 -12 0 -26 5 -29 10 -8 13 -195 13 -215 0z m-46 -606 c3 -9
6 -36 6 -60 0 -38 -5 -50 -31 -74 -50 -45 -122 -62 -243 -58 -85 2 -108 6
-125 22 -26 23 -27 47 -3 67 38 33 145 78 200 85 31 3 62 10 67 14 12 10 48
17 91 19 21 1 34 -5 38 -15z"/>
<path d="M7133 2035 c-3 -9 -3 -19 1 -22 7 -7 36 16 36 28 0 15 -30 10 -37 -6z"/>
<path d="M6753 2000 c-18 -10 -39 -33 -48 -50 -18 -34 -37 -37 -95 -14 -51 21
-84 12 -100 -25 -14 -36 -6 -68 21 -76 26 -8 59 3 59 20 0 20 15 27 45 19 16
-4 25 -13 25 -25 0 -10 5 -19 10 -19 6 0 10 8 8 18 -4 22 35 24 40 1 8 -42
-103 -98 -169 -85 -41 8 -60 -8 -52 -44 4 -25 0 -32 -36 -55 -36 -24 -48 -27
-108 -24 l-68 4 0 -55 c0 -41 5 -58 18 -68 9 -7 17 -24 17 -38 0 -18 5 -24 23
-24 30 0 55 -17 42 -28 -23 -22 -54 -23 -65 -2 -8 15 -21 20 -50 20 -43 0 -58
13 -40 35 21 25 1 37 -46 30 -41 -6 -46 -4 -73 25 -16 18 -32 45 -35 61 -4 24
-11 29 -34 29 -55 0 -71 -49 -24 -74 15 -8 44 -35 64 -59 31 -37 37 -51 32
-75 -10 -51 55 -94 86 -57 17 21 53 19 83 -5 28 -23 69 -26 85 -7 6 6 16 31
23 54 10 30 24 48 51 65 42 26 44 30 23 48 -8 7 -15 16 -15 21 0 19 34 39 67
39 50 0 133 61 133 98 0 33 8 45 39 62 27 14 99 67 151 111 19 16 52 35 74 41
45 14 78 54 55 69 -15 9 -163 59 -176 59 -4 0 -22 -9 -40 -20z m-193 -305 c0
-23 -34 -65 -52 -65 -18 0 -7 53 15 71 30 25 37 24 37 -6z m-320 -275 c0 -5
-7 -10 -15 -10 -8 0 -15 5 -15 10 0 6 7 10 15 10 8 0 15 -4 15 -10z"/>
<path d="M6450 1980 c0 -5 9 -10 20 -10 11 0 20 5 20 10 0 6 -9 10 -20 10 -11
0 -20 -4 -20 -10z"/>
<path d="M6257 1833 c-13 -13 -19 -14 -29 -5 -17 17 -38 15 -38 -3 0 -16 62
-31 82 -21 41 21 57 34 51 39 -12 13 -49 7 -66 -10z"/>
<path d="M6901 1794 c-11 -14 -36 -30 -56 -35 -38 -11 -41 -25 -11 -43 15 -9
25 -3 62 37 24 27 44 53 44 58 0 17 -19 9 -39 -17z"/>
<path d="M3325 1770 c-9 -15 4 -30 26 -30 12 0 19 7 19 20 0 21 -33 29 -45 10z"/>
<path d="M6060 1742 c0 -33 14 -42 65 -42 60 0 68 42 10 53 -16 3 -40 8 -52
12 -20 7 -23 4 -23 -23z"/>
<path d="M5030 1486 c-70 -147 -75 -181 -30 -214 16 -12 36 -22 45 -22 20 0
75 28 75 38 0 7 57 42 69 42 4 0 6 -13 3 -28 -4 -32 22 -67 41 -55 6 4 28 6
49 4 30 -1 45 4 70 28 18 17 48 38 68 48 19 10 39 24 44 32 5 7 23 30 41 50
17 20 38 50 47 66 8 17 22 45 32 64 9 18 14 36 11 40 -4 3 -34 9 -68 13 -34 4
-78 10 -98 14 -23 3 -39 2 -43 -5 -4 -6 -22 -11 -40 -11 -38 0 -59 -18 -46
-39 30 -49 -148 -222 -245 -238 -49 -8 -47 7 21 140 55 110 64 149 32 155 -14
3 -31 -26 -78 -122z m475 53 c15 -23 -9 -62 -87 -144 -55 -57 -89 -85 -104
-85 -13 0 -30 -9 -38 -21 -16 -23 -36 -18 -36 9 0 40 112 205 160 236 28 18
96 21 105 5z"/>
<path d="M6627 1594 c-4 -4 -7 -14 -7 -23 0 -11 3 -12 11 -4 6 6 10 16 7 23
-2 6 -7 8 -11 4z"/>
<path d="M3362 1538 c-19 -19 -15 -66 7 -78 36 -19 42 -12 39 37 -3 50 -21 66
-46 41z"/>
<path d="M6565 1535 c-16 -8 -39 -21 -49 -29 -16 -13 -17 -18 -6 -31 16 -19
60 -16 70 5 4 8 12 25 18 37 20 38 15 41 -33 18z"/>
<path d="M5901 1476 c-40 -14 -48 -28 -27 -45 12 -10 17 -9 28 8 7 12 21 21
30 21 10 0 18 7 18 15 0 18 -4 18 -49 1z"/>
<path d="M5744 1405 c-8 -21 3 -45 20 -45 21 0 25 11 15 38 -10 25 -27 29 -35
7z"/>
<path d="M3450 1356 c0 -39 13 -66 26 -54 7 8 -8 98 -17 98 -5 0 -9 -20 -9
-44z"/>
<path d="M5577 1342 c-10 -10 -17 -25 -17 -33 0 -15 -62 -69 -79 -69 -13 0
-31 -33 -31 -59 0 -30 -19 -36 -44 -12 -28 27 -34 26 -38 -1 -3 -26 -41 -36
-63 -18 -15 12 -45 7 -45 -7 0 -14 62 -40 124 -53 l58 -12 34 34 c26 25 33 41
34 71 0 36 20 52 35 27 12 -19 25 -10 45 30 13 25 27 40 39 40 30 0 46 26 33
55 -14 31 -61 34 -85 7z"/>
<path d="M3355 1241 c-5 -10 21 -41 34 -41 14 0 33 29 26 40 -8 12 -52 13 -60
1z"/>
<path d="M4732 1213 c2 -10 13 -19 26 -21 17 -3 22 2 22 17 0 16 -6 21 -26 21
-19 0 -25 -5 -22 -17z"/>
<path d="M3853 1144 c-33 -37 -35 -61 -4 -48 9 4 28 6 44 5 15 -1 27 3 27 7 0
8 -29 72 -33 72 -1 0 -17 -16 -34 -36z"/>
<path d="M3344 1145 c-11 -26 4 -45 35 -45 36 0 46 13 31 40 -13 24 -58 27
-66 5z"/>
<path d="M3483 1145 c-4 -13 2 -25 20 -39 34 -27 34 -52 0 -88 -19 -20 -24
-31 -16 -39 12 -12 42 0 74 32 10 10 28 19 40 19 31 0 59 19 59 40 0 25 -80
78 -130 86 -32 5 -41 3 -47 -11z"/>
<path d="M5144 1135 c-8 -20 4 -35 27 -35 32 0 21 -44 -11 -48 -54 -6 -70 -13
-70 -30 0 -26 20 -42 52 -42 22 0 31 7 39 28 7 15 16 37 21 48 7 14 6 28 0 40
-6 11 -13 27 -16 37 -7 21 -34 23 -42 2z"/>
<path d="M5695 1090 c-4 -6 -4 -28 0 -49 4 -27 2 -41 -9 -50 -8 -7 -18 -25
-21 -41 -3 -16 -13 -34 -21 -41 -15 -13 -19 -65 -5 -73 5 -3 14 1 21 9 7 8 27
15 46 15 23 0 37 6 44 20 6 11 28 31 49 44 21 14 46 41 55 61 16 33 16 41 4
74 -12 29 -19 35 -39 33 -48 -7 -74 -6 -96 1 -12 5 -24 3 -28 -3z"/>
<path d="M4911 1061 c-11 -26 -9 -71 6 -125 9 -34 27 1 26 54 -1 40 3 51 18
55 26 9 24 20 -6 33 -33 15 -31 16 -44 -17z"/>
<path d="M5502 1033 c-38 -4 -42 -7 -37 -24 11 -34 -30 -69 -80 -69 -84 0
-134 -12 -141 -32 -10 -32 3 -62 35 -81 29 -17 29 -17 24 4 -6 23 10 39 40 39
13 0 17 -8 17 -36 0 -31 3 -35 18 -29 9 5 32 10 50 13 18 2 39 13 45 23 7 12
23 19 43 19 22 0 42 10 66 33 42 40 54 70 34 86 -8 7 -17 23 -20 36 -5 18 -13
25 -29 23 -12 -1 -41 -3 -65 -5z m47 -32 c9 -6 10 -10 2 -16 -16 -9 -44 2 -36
15 8 12 16 12 34 1z"/>
<path d="M3748 1009 c-27 -15 -22 -43 12 -67 35 -27 44 -82 12 -82 -24 0 -42
-19 -35 -36 7 -20 27 -17 47 5 10 11 30 23 45 26 29 6 61 50 61 83 0 24 -74
82 -104 82 -12 0 -29 -5 -38 -11z"/>
<path d="M3312 969 c4 -55 -18 -71 -62 -46 -39 24 -51 15 -48 -36 3 -41 3 -42
-28 -40 -21 2 -34 -2 -38 -12 -9 -25 3 -42 44 -58 27 -10 41 -23 46 -41 7 -30
43 -36 65 -10 13 15 35 15 85 -1 19 -6 22 -2 28 50 5 47 3 63 -14 90 -11 18
-20 50 -20 73 0 56 -8 72 -36 72 -22 0 -24 -4 -22 -41z"/>
<path d="M3601 981 c-17 -11 -9 -36 18 -50 15 -8 24 -7 42 8 20 16 21 21 10
35 -15 17 -48 21 -70 7z"/>
<path d="M4290 920 c0 -11 4 -20 9 -20 11 0 22 26 14 34 -12 12 -23 5 -23 -14z"/>
<path d="M4810 893 c0 -25 -19 -43 -45 -43 -27 0 -35 -8 -28 -26 4 -11 19 -13
67 -8 59 6 63 5 79 -20 27 -41 52 -34 67 20 16 55 7 67 -50 66 -24 -1 -53 6
-66 15 -22 14 -24 14 -24 -4z"/>
<path d="M4593 874 c-25 -14 -43 -33 -43 -43 0 -26 44 -63 72 -59 20 3 23 8
20 36 -2 21 3 41 13 52 17 19 13 40 -8 40 -7 0 -31 -12 -54 -26z"/>
<path d="M5068 858 c-2 -13 -13 -27 -25 -33 -13 -5 -23 -18 -23 -27 0 -19 20
-23 48 -9 9 5 30 13 46 17 34 10 37 25 8 39 -11 6 -27 16 -35 23 -13 11 -16
10 -19 -10z"/>
<path d="M3582 833 c-6 -10 -6 -27 0 -46 8 -23 7 -32 -6 -45 -14 -14 -21 -14
-51 -3 -46 16 -56 8 -49 -40 6 -35 4 -39 -14 -39 -31 0 -52 -10 -52 -26 0 -18
39 -44 66 -44 15 0 25 -9 33 -30 11 -33 40 -40 62 -14 9 11 26 15 63 12 l50
-3 3 57 c2 49 -2 61 -27 94 -20 24 -30 48 -30 71 0 59 -28 92 -48 56z"/>
<path d="M5170 796 c0 -25 12 -46 26 -46 9 0 14 11 14 30 0 23 -4 30 -20 30
-11 0 -20 -6 -20 -14z"/>
<path d="M4820 725 c0 -9 5 -15 11 -13 6 2 11 8 11 13 0 5 -5 11 -11 13 -6 2
-11 -4 -11 -13z"/>
<path d="M5096 713 c-11 -11 -6 -23 9 -23 8 0 15 4 15 9 0 13 -16 22 -24 14z"/>
<path d="M4045 559 c-8 -23 7 -45 24 -35 6 4 11 18 11 32 0 30 -26 32 -35 3z"/>
<path d="M4092 487 c-27 -29 -29 -57 -3 -57 32 0 59 51 37 69 -9 8 -18 5 -34
-12z"/>
<path d="M3812 398 c-18 -18 -14 -42 11 -66 26 -24 66 -29 85 -10 18 18 15 36
-13 63 -26 27 -64 32 -83 13z"/>
<path d="M4148 293 c-10 -2 -21 -16 -25 -30 -8 -34 36 -76 76 -71 21 2 27 9
29 34 2 25 -3 37 -24 53 -15 11 -29 20 -33 20 -3 -1 -14 -3 -23 -6z"/>
</g>
</svg>
